{
	"asset":{
		"generator":"Khronos glTF Blender I/O v4.0.44",
		"version":"2.0"
	},
	"extensionsUsed":[
		"KHR_materials_specular",
		"KHR_materials_ior"
	],
	"scene":0,
	"scenes":[
		{
			"name":"Scene",
			"nodes":[
				0
			]
		}
	],
	"nodes":[
		{
			"mesh":0,
			"name":"Circle.002",
			"rotation":[
				0.27059808373451233,
				0.6532815098762512,
				-0.6532815098762512,
				0.27059805393218994
			]
		}
	],
	"materials":[
		{
			"doubleSided":true,
			"extensions":{
				"KHR_materials_specular":{
					"specularFactor":0
				},
				"KHR_materials_ior":{
					"ior":1.4500000476837158
				}
			},
			"name":"Material.001",
			"pbrMetallicRoughness":{
				"baseColorFactor":[
					0.2920262813568115,
					0.2920262813568115,
					0.2920262813568115,
					1
				],
				"metallicFactor":0,
				"roughnessFactor":0.5
			}
		}
	],
	"meshes":[
		{
			"name":"Circle.002",
			"primitives":[
				{
					"attributes":{
						"POSITION":0,
						"NORMAL":1,
						"TEXCOORD_0":2
					},
					"indices":3,
					"material":0
				}
			]
		}
	],
	"accessors":[
		{
			"bufferView":0,
			"componentType":5126,
			"count":32768,
			"max":[
				1.025749683380127,
				1.025749683380127,
				0.9932460188865662
			],
			"min":[
				-1.025749683380127,
				-1.025749683380127,
				-0.9932460188865662
			],
			"type":"VEC3"
		},
		{
			"bufferView":1,
			"componentType":5126,
			"count":32768,
			"type":"VEC3"
		},
		{
			"bufferView":2,
			"componentType":5126,
			"count":32768,
			"type":"VEC2"
		},
		{
			"bufferView":3,
			"componentType":5123,
			"count":49152,
			"type":"SCALAR"
		}
	],
	"bufferViews":[
		{
			"buffer":0,
			"byteLength":393216,
			"byteOffset":0,
			"target":34962
		},
		{
			"buffer":0,
			"byteLength":393216,
			"byteOffset":393216,
			"target":34962
		},
		{
			"buffer":0,
			"byteLength":262144,
			"byteOffset":786432,
			"target":34962
		},
		{
			"buffer":0,
			"byteLength":98304,
			"byteOffset":1048576,
			"target":34963
		}
	],
	"buffers":[
		{
			"byteLength":1146880,
			"uri":"gizmo.bin"
		}
	]
}
